<?xml version="1.0" encoding="UTF-8" standalone="no"?>
<!-- Created with Inkscape (http://www.inkscape.org/) -->

<svg
   xmlns:dc="http://purl.org/dc/elements/1.1/"
   xmlns:cc="http://creativecommons.org/ns#"
   xmlns:rdf="http://www.w3.org/1999/02/22-rdf-syntax-ns#"
   xmlns:svg="http://www.w3.org/2000/svg"
   xmlns="http://www.w3.org/2000/svg"
   xmlns:xlink="http://www.w3.org/1999/xlink"
   xmlns:sodipodi="http://sodipodi.sourceforge.net/DTD/sodipodi-0.dtd"
   xmlns:inkscape="http://www.inkscape.org/namespaces/inkscape"
   width="100"
   height="100"
   id="svg2"
   version="1.1"
   inkscape:version="0.47 r22583"
   sodipodi:docname="php-gov-br.svg">
  <defs
     id="defs4">
    <linearGradient
       id="linearGradient2883">
      <stop
         style="stop-color:#355b1b;stop-opacity:1;"
         offset="0"
         id="stop2885" />
      <stop
         style="stop-color:#447821;stop-opacity:1;"
         offset="1"
         id="stop2887" />
    </linearGradient>
    <inkscape:perspective
       sodipodi:type="inkscape:persp3d"
       inkscape:vp_x="0 : 526.18109 : 1"
       inkscape:vp_y="0 : 1000 : 0"
       inkscape:vp_z="744.09448 : 526.18109 : 1"
       inkscape:persp3d-origin="372.04724 : 350.78739 : 1"
       id="perspective10" />
    <linearGradient
       inkscape:collect="always"
       xlink:href="#linearGradient2883"
       id="linearGradient2889"
       x1="666.07587"
       y1="-380.5"
       x2="676.70557"
       y2="-380.5"
       gradientUnits="userSpaceOnUse" />
    <linearGradient
       inkscape:collect="always"
       xlink:href="#linearGradient2883"
       id="linearGradient2909"
       gradientUnits="userSpaceOnUse"
       x1="666.07587"
       y1="-380.5"
       x2="676.70557"
       y2="-380.5"
       gradientTransform="matrix(4.0777784,0,0,1,-2422.57,96.809383)" />
    <linearGradient
       inkscape:collect="always"
       xlink:href="#linearGradient2883"
       id="linearGradient2990"
       gradientUnits="userSpaceOnUse"
       gradientTransform="matrix(4.0777784,0,0,1,-2422.57,96.809383)"
       x1="666.07587"
       y1="-380.5"
       x2="676.70557"
       y2="-380.5" />
  </defs>
  <sodipodi:namedview
     id="base"
     pagecolor="#ffffff"
     bordercolor="#666666"
     borderopacity="1.0"
     inkscape:pageopacity="0.0"
     inkscape:pageshadow="2"
     inkscape:zoom="1"
     inkscape:cx="97.807337"
     inkscape:cy="70.39966"
     inkscape:document-units="px"
     inkscape:current-layer="layer1"
     showgrid="false"
     showguides="true"
     inkscape:guide-bbox="true"
     inkscape:window-width="1280"
     inkscape:window-height="750"
     inkscape:window-x="-8"
     inkscape:window-y="-8"
     inkscape:window-maximized="1" />
  <metadata
     id="metadata7">
    <rdf:RDF>
      <cc:Work
         rdf:about="">
        <dc:format>image/svg+xml</dc:format>
        <dc:type
           rdf:resource="http://purl.org/dc/dcmitype/StillImage" />
        <dc:title></dc:title>
      </cc:Work>
    </rdf:RDF>
  </metadata>
  <g
     inkscape:label="Layer 1"
     inkscape:groupmode="layer"
     id="layer1"
     transform="translate(0,-952.36218)">
    <g
       id="g2968"
       transform="matrix(0.42050951,0,0,0.42050951,-95.13144,878.9058)"
       inkscape:export-xdpi="90"
       inkscape:export-ydpi="90">
      <path
         id="rect2893"
         d="m 187.08038,-459.2796 213.01444,0 c 0.082,0 0.14801,0.40217 0.14801,0.90172 l 0,226.49103 c 0,0.49956 -0.066,0.90173 -0.14801,0.90173 l -213.01444,0 c -0.082,0 -0.14801,-0.40217 -0.14801,-0.90173 l 0,-226.49103 c 0,-0.49955 0.066,-0.90172 0.14801,-0.90172 z"
         style="fill:url(#linearGradient2990);fill-opacity:1;stroke:none"
         transform="matrix(0,1,-1,0,0,0)" />
      <g
         id="text2915"
         style="font-size:311.49014282px;font-style:normal;font-variant:normal;font-weight:normal;font-stretch:normal;text-align:start;line-height:125%;writing-mode:lr-tb;text-anchor:start;fill:#aaccff;fill-opacity:1;stroke:none;font-family:OpenSymbol;-inkscape-font-specification:OpenSymbol"
         transform="matrix(0,0.82348696,-1.2143483,0,0,0)">
        <path
           id="path2962"
           d="m 247.5858,-355.84865 8.6694,0 60.07744,71.63665 -60.07744,71.63664 -8.6694,0 36.95903,-71.63664 z" />
      </g>
      <path
         style="fill:#112b00;fill-opacity:1;stroke:none"
         d="m 458.83056,188.16146 -113.60925,37.98443 c -0.0493,0.0156 -0.34932,-0.0576 -0.67275,-0.16552 L 231.929,188.32677 c -0.3234,-0.10827 -0.5441,-0.20839 -0.49483,-0.22498 l 226.90149,-0.16552 c 0.32343,0.10826 0.54417,0.20839 0.4949,0.22497 z"
         id="path2895"
         sodipodi:nodetypes="ccccccc" />
      <g
         id="text2901"
         style="font-size:35.92416763px;font-style:normal;font-variant:normal;font-weight:bold;font-stretch:normal;text-align:start;line-height:125%;writing-mode:lr-tb;text-anchor:start;fill:#e2e3db;fill-opacity:1;stroke:none;font-family:Aharoni;-inkscape-font-specification:Aharoni Bold">
        <path
           id="path2941"
           d="m 265.03972,294.38198 c -2e-5,2.78319 -0.96478,5.00506 -2.89428,6.66562 -1.53194,1.32143 -3.29189,1.98214 -5.27987,1.98214 -1.15772,0 -2.24527,-0.24557 -3.26264,-0.73672 -0.58472,-0.28066 -1.18696,-0.74258 -1.80674,-1.38575 l 0,9.73531 -5.75348,0 0,-24.41721 5.75348,0 0,1.80673 c 0.51453,-0.67824 1.07,-1.18108 1.66641,-1.50853 0.98229,-0.5496 2.09907,-0.82442 3.35035,-0.82443 2.02305,10e-6 3.82394,0.69581 5.40265,2.08739 1.88273,1.66057 2.8241,3.85905 2.82412,6.59545 z m -5.98151,-0.0175 c -2e-5,-0.92382 -0.29237,-1.72486 -0.87706,-2.40313 -0.73674,-0.86535 -1.68396,-1.29803 -2.84166,-1.29804 -1.04078,10e-6 -1.92076,0.35668 -2.63993,1.07001 -0.71919,0.71334 -1.07879,1.5904 -1.07878,2.63116 -1e-5,1.02909 0.36251,1.90322 1.08755,2.62239 0.72502,0.71919 1.60208,1.07879 2.63116,1.07878 1.1577,10e-6 2.09908,-0.43267 2.82412,-1.29804 0.59638,-0.70164 0.89458,-1.50268 0.8946,-2.40313 z" />
        <path
           id="path2943"
           d="m 285.52772,302.50351 -5.75348,0 0,-8.24432 c -1e-5,-1.45005 -0.16373,-2.40896 -0.49115,-2.87674 -0.47947,-0.68993 -1.19865,-1.03491 -2.15755,-1.03492 -0.88876,10e-6 -1.62549,0.29821 -2.21018,0.89459 -0.53794,0.54964 -0.8069,1.39746 -0.80689,2.54346 l 0,8.71793 -5.75348,0 0,-26.34673 5.75348,0 0,12.1209 c 0.66655,-0.77179 1.28049,-1.31557 1.84181,-1.63132 0.92383,-0.52622 2.064,-0.78934 3.42052,-0.78935 1.73071,10e-6 3.15738,0.47947 4.28003,1.43837 1.25124,1.07587 1.87687,2.68965 1.87689,4.84134 z" />
        <path
           id="path2945"
           d="m 308.47148,294.38198 c -2e-5,2.78319 -0.96478,5.00506 -2.89428,6.66562 -1.53194,1.32143 -3.2919,1.98214 -5.27987,1.98214 -1.15773,0 -2.24527,-0.24557 -3.26265,-0.73672 -0.58471,-0.28066 -1.18695,-0.74258 -1.80673,-1.38575 l 0,9.73531 -5.75348,0 0,-24.41721 5.75348,0 0,1.80673 c 0.51453,-0.67824 1.07,-1.18108 1.66641,-1.50853 0.98229,-0.5496 2.09907,-0.82442 3.35035,-0.82443 2.02305,10e-6 3.82394,0.69581 5.40265,2.08739 1.88273,1.66057 2.8241,3.85905 2.82412,6.59545 z m -5.98151,-0.0175 c -2e-5,-0.92382 -0.29237,-1.72486 -0.87706,-2.40313 -0.73674,-0.86535 -1.68396,-1.29803 -2.84166,-1.29804 -1.04078,10e-6 -1.92076,0.35668 -2.63993,1.07001 -0.71919,0.71334 -1.07879,1.5904 -1.07878,2.63116 -1e-5,1.02909 0.36251,1.90322 1.08755,2.62239 0.72502,0.71919 1.60208,1.07879 2.63116,1.07878 1.1577,10e-6 2.09907,-0.43267 2.82412,-1.29804 0.59638,-0.70164 0.89458,-1.50268 0.8946,-2.40313 z" />
        <path
           id="path2947"
           d="m 316.10186,300.67924 c -10e-6,0.5847 -0.20466,1.0817 -0.61394,1.49099 -0.4093,0.40929 -0.9063,0.61394 -1.491,0.61394 -0.60809,0 -1.11971,-0.20465 -1.53484,-0.61394 -0.41514,-0.40929 -0.62271,-0.90629 -0.62271,-1.49099 0,-0.58471 0.20757,-1.07878 0.62271,-1.48223 0.41513,-0.40344 0.92675,-0.60516 1.53484,-0.60517 0.5847,1e-5 1.0817,0.20173 1.491,0.60517 0.40928,0.40345 0.61393,0.89752 0.61394,1.48223 z" />
        <path
           id="path2949"
           d="m 344.25532,289.20736 c -2e-5,2.59609 -0.29237,4.71271 -0.87705,6.34987 -0.88878,2.49085 -2.35638,4.40867 -4.40282,5.75348 -1.97631,1.28635 -4.31512,1.92952 -7.01644,1.92953 -4.39697,-10e-6 -7.77071,-1.49684 -10.12121,-4.49053 -1.7775,-2.26864 -2.66625,-4.97581 -2.66625,-8.12152 0,-3.48482 1.04077,-6.41418 3.12232,-8.78809 2.36219,-2.70131 5.65992,-4.05197 9.89318,-4.052 2.82994,3e-5 5.22723,0.72506 7.19185,2.1751 1.40326,1.0291 2.6019,2.54933 3.59592,4.56068 l -5.91135,2.43822 c -0.50286,-1.12262 -1.08756,-1.96459 -1.75411,-2.52592 -0.95893,-0.79518 -2.0991,-1.19278 -3.42051,-1.1928 -2.70134,2e-5 -4.58408,1.39746 -5.64823,4.19233 -0.39761,1.02909 -0.59641,2.09325 -0.5964,3.19248 -1e-5,2.28035 0.71918,4.18063 2.15755,5.70085 1.06415,1.13433 2.48498,1.70149 4.26249,1.70149 1.57868,0 2.82995,-0.46191 3.7538,-1.38575 0.60807,-0.60808 1.00567,-1.50852 1.19279,-2.70133 l -5.10446,0 0,-4.73609 z" />
        <path
           id="path2951"
           d="m 366.58514,294.36444 c -3e-5,2.25696 -0.7426,4.19233 -2.22772,5.8061 -1.80091,1.96461 -4.32098,2.94691 -7.56022,2.94691 -3.25095,0 -5.77687,-0.9823 -7.57775,-2.94691 -1.48515,-1.61377 -2.22772,-3.59592 -2.22772,-5.94643 0,-2.11661 0.74842,-3.99351 2.24526,-5.63069 1.81257,-1.97628 4.39111,-2.96443 7.73562,-2.96445 3.07553,2e-5 5.53128,0.98817 7.36727,2.96445 1.49682,1.61379 2.24523,3.53746 2.24526,5.77102 z m -5.98152,0 c -10e-6,-1.05246 -0.3713,-1.94413 -1.11386,-2.67502 -0.74258,-0.73086 -1.6401,-1.0963 -2.69256,-1.09632 -1.1928,2e-5 -2.16341,0.44439 -2.91182,1.33313 -0.6081,0.71335 -0.91214,1.52608 -0.91214,2.43821 0,0.92384 0.30404,1.74242 0.91214,2.45575 0.74841,0.88876 1.71902,1.33313 2.91182,1.33313 1.06415,0 1.96459,-0.36544 2.70133,-1.09632 0.73671,-0.73087 1.10508,-1.62839 1.10509,-2.69256 z" />
        <path
           id="path2953"
           d="m 388.63429,286.22537 -8.47235,16.27814 -3.8415,0 -8.40218,-16.27814 6.47266,0 3.89413,8.34956 3.91166,-8.34956 z" />
        <path
           id="path2955"
           d="m 397.87846,296.18871 -7.683,0 0,-3.73625 7.683,0 z" />
        <path
           id="path2957"
           d="m 420.31351,295.69756 c -2e-5,1.7892 -0.50871,3.24511 -1.52607,4.36774 -1.47347,1.62547 -3.71873,2.43821 -6.73579,2.43821 l -9.98088,0 0,-23.9436 9.2617,0 c 4.4905,3e-5 6.73576,2.08157 6.73578,6.24463 -2e-5,1.25128 -0.24559,2.2979 -0.73673,3.13986 -0.4093,0.71335 -1.04078,1.32144 -1.89443,1.82427 1.91781,0.39761 3.22754,1.16357 3.9292,2.29789 0.63146,1.04078 0.9472,2.25111 0.94722,3.631 z m -7.99874,-10.06859 c -1e-5,-1.08753 -0.49116,-1.80671 -1.47345,-2.15755 -0.35083,-0.11692 -0.8186,-0.17539 -1.40329,-0.17541 l -1.14017,0 0,4.68347 1.14017,0 c 1.07584,2e-5 1.84765,-0.2631 2.31543,-0.78935 0.37419,-0.42097 0.5613,-0.94135 0.56131,-1.56116 z m 1.77165,9.64761 c -10e-6,-1.39159 -0.7192,-2.21017 -2.15755,-2.45576 -0.45608,-0.0702 -1.23959,-0.10523 -2.35051,-0.10524 l -1.2805,0 0,5.05183 1.38575,0 c 1.59038,1e-5 2.70131,-0.1871 3.3328,-0.56131 0.71333,-0.42098 1.07,-1.06416 1.07001,-1.92952 z" />
        <path
           id="path2959"
           d="m 444.22203,302.50351 -7.75317,0 -5.92889,-9.19154 0,9.19154 -6.22709,0 0,-23.9436 9.68269,0 c 2.82995,3e-5 4.92318,0.84784 6.27971,2.54346 1.09922,1.36823 1.64884,2.97616 1.64886,4.8238 -2e-5,2.11664 -0.6315,3.80643 -1.89444,5.06938 -0.8069,0.8069 -1.91784,1.36822 -3.3328,1.68394 z m -8.77055,-16.22552 c -2e-5,-0.85365 -0.30991,-1.57283 -0.92968,-2.15755 -0.58472,-0.5496 -1.52609,-0.82441 -2.82412,-0.82443 l -1.15771,0 0,5.98151 1.15771,0 c 1.30973,2e-5 2.2511,-0.2748 2.82412,-0.82443 0.61977,-0.59638 0.92966,-1.32141 0.92968,-2.1751 z" />
      </g>
      <path
         sodipodi:nodetypes="ccccccc"
         id="path2907"
         d="m 444.20658,188.13249 -98.99671,33.09882 c -0.043,0.0156 -0.30439,-0.0501 -0.58622,-0.14456 l -98.13432,-32.81049 c -0.2818,-0.0945 -0.47411,-0.18148 -0.43118,-0.19618 l 197.71718,-0.14456 c 0.28183,0.0945 0.47418,0.18179 0.43125,0.19619 z"
         style="fill:#ffd42a;fill-opacity:1;stroke:none" />
      <path
         sodipodi:nodetypes="ccccccc"
         id="path2911"
         d="m 231.43417,399.92204 113.60925,-37.98443 c 0.0493,-0.0156 0.34932,0.0576 0.67275,0.16552 l 112.61956,37.6536 c 0.3234,0.10827 0.5441,0.20839 0.49483,0.22498 l -226.90149,0.16552 c -0.32343,-0.10826 -0.54417,-0.20839 -0.4949,-0.22497 z"
         style="fill:#112b00;fill-opacity:1;stroke:none" />
      <path
         style="fill:#ffd42a;fill-opacity:1;stroke:none"
         d="m 246.05815,399.95101 98.99671,-33.09882 c 0.043,-0.0156 0.30439,0.0501 0.58622,0.14456 l 98.13432,32.81049 c 0.2818,0.0945 0.47411,0.18148 0.43118,0.19618 l -197.71718,0.14456 c -0.28183,-0.0945 -0.47418,-0.18179 -0.43125,-0.19619 z"
         id="path2913"
         sodipodi:nodetypes="ccccccc" />
      <g
         id="text2923"
         style="font-size:311.49014282px;font-style:normal;font-variant:normal;font-weight:normal;font-stretch:normal;text-align:start;line-height:125%;writing-mode:lr-tb;text-anchor:start;fill:#afc6e9;fill-opacity:1;stroke:none;font-family:OpenSymbol;-inkscape-font-specification:OpenSymbol"
         transform="matrix(0,-0.82348696,1.2143483,0,0,0)">
        <path
           id="path2965"
           d="m -469.34046,212.57536 8.66941,0 60.07744,71.63665 -60.07744,71.63665 -8.66941,0 36.95904,-71.63665 z" />
      </g>
    </g>
  </g>
</svg>
